<svg xmlns="http://www.w3.org/2000/svg" width="16" height="16" viewBox="0 0 16 16" fill="none">
<path d="M9.99754 14.6631V11.9971C10.0903 11.1621 9.85086 10.3242 9.33104 9.66431C11.3305 9.66431 13.3301 8.3313 13.3301 5.99854C13.3834 5.16541 13.1501 4.34561 12.6636 3.66577C12.8502 2.89929 12.8502 2.09949 12.6636 1.33301C12.6636 1.33301 11.9971 1.33301 10.664 2.33276C8.90447 1.99951 7.09158 1.99951 5.33201 2.33276C3.99901 1.33301 3.3325 1.33301 3.3325 1.33301C3.13255 2.09949 3.13255 2.89929 3.3325 3.66577C2.8472 4.34286 2.61166 5.16726 2.666 5.99854C2.666 8.3313 4.66551 9.66431 6.66502 9.66431C6.40508 9.99089 6.2118 10.3641 6.09849 10.764C5.98519 11.1639 5.95186 11.5838 5.99852 11.9971V14.6631" stroke="#0A0A0A" stroke-width="1.33301" stroke-linecap="round" stroke-linejoin="round"/>
<path d="M5.99854 11.9971C2.9926 13.3301 2.66602 10.6641 1.33301 10.6641" stroke="#0A0A0A" stroke-width="1.33301" stroke-linecap="round" stroke-linejoin="round"/>
</svg>