<svg width="14" height="14" viewBox="0 0 14 14" fill="none" xmlns="http://www.w3.org/2000/svg">
<path d="M12.6549 6.98017C12.5924 8.13732 12.1961 9.25161 11.5138 10.1883C10.8316 11.1251 9.89265 11.8441 8.81047 12.2586C7.72829 12.673 6.54923 12.7652 5.4158 12.5238C4.28238 12.2825 3.24312 11.718 2.42366 10.8987C1.6042 10.0793 1.03962 9.04008 0.798161 7.90668C0.556706 6.77329 0.648716 5.59421 1.06307 4.51199C1.47742 3.42977 2.19638 2.49073 3.13303 1.80839C4.06968 1.12606 5.18392 0.729637 6.34106 0.66705C6.611 0.652386 6.7523 0.973641 6.609 1.20225C6.12971 1.9691 5.92448 2.87576 6.0268 3.77426C6.12913 4.67276 6.53296 5.51005 7.17241 6.1495C7.81185 6.78894 8.64915 7.19278 9.54765 7.2951C10.4461 7.39742 11.3528 7.1922 12.1197 6.71291C12.3489 6.56961 12.6695 6.71024 12.6549 6.98017Z" stroke="#525252" stroke-width="1.33301" stroke-linecap="round" stroke-linejoin="round"/>
</svg>
