<svg width="16" height="16" viewBox="0 0 16 16" fill="none" xmlns="http://www.w3.org/2000/svg">
<g clip-path="url(#clip0_1_279)">
<path d="M6.4458 2.75664C6.48252 2.3703 6.66197 2.01152 6.94908 1.75041C7.23619 1.48929 7.61033 1.3446 7.99842 1.3446C8.38651 1.3446 8.76066 1.48929 9.04777 1.75041C9.33487 2.01152 9.51432 2.3703 9.55104 2.75664C9.57312 3.00622 9.65499 3.2468 9.78974 3.45803C9.92449 3.66926 10.1081 3.84492 10.3252 3.97013C10.5422 4.09534 10.7862 4.16643 11.0365 4.17738C11.2868 4.18832 11.5361 4.13879 11.7632 4.033C12.1158 3.87289 12.5154 3.84972 12.8842 3.968C13.253 4.08629 13.5646 4.33756 13.7584 4.67291C13.9521 5.00826 14.0141 5.40371 13.9324 5.78228C13.8507 6.16086 13.631 6.49547 13.3161 6.72101C13.1111 6.86487 12.9437 7.056 12.8282 7.27822C12.7126 7.50044 12.6523 7.74723 12.6523 7.9977C12.6523 8.24816 12.7126 8.49495 12.8282 8.71717C12.9437 8.93939 13.1111 9.13052 13.3161 9.27438C13.631 9.49992 13.8507 9.83453 13.9324 10.2131C14.0141 10.5917 13.9521 10.9871 13.7584 11.3225C13.5646 11.6578 13.253 11.9091 12.8842 12.0274C12.5154 12.1457 12.1158 12.1225 11.7632 11.9624C11.5361 11.8566 11.2868 11.8071 11.0365 11.818C10.7862 11.829 10.5422 11.9 10.3252 12.0253C10.1081 12.1505 9.92449 12.3261 9.78974 12.5374C9.65499 12.7486 9.57312 12.9892 9.55104 13.2387C9.51432 13.6251 9.33487 13.9839 9.04777 14.245C8.76066 14.5061 8.38651 14.6508 7.99842 14.6508C7.61033 14.6508 7.23619 14.5061 6.94908 14.245C6.66197 13.9839 6.48252 13.6251 6.4458 13.2387C6.42377 12.9891 6.34189 12.7484 6.2071 12.5371C6.07232 12.3258 5.88859 12.1501 5.67148 12.0249C5.45437 11.8996 5.21028 11.8286 4.95988 11.8177C4.70949 11.8068 4.46015 11.8565 4.23301 11.9624C3.88035 12.1225 3.48074 12.1457 3.11195 12.0274C2.74316 11.9091 2.43156 11.6578 2.23782 11.3225C2.04407 10.9871 1.98203 10.5917 2.06378 10.2131C2.14552 9.83453 2.3652 9.49992 2.68005 9.27438C2.88508 9.13052 3.05245 8.93939 3.16799 8.71717C3.28354 8.49495 3.34386 8.24816 3.34386 7.9977C3.34386 7.74723 3.28354 7.50044 3.16799 7.27822C3.05245 7.056 2.88508 6.86487 2.68005 6.72101C2.36564 6.49536 2.14635 6.16087 2.06481 5.78256C1.98326 5.40424 2.04528 5.00912 2.23882 4.67398C2.43235 4.33885 2.74358 4.08764 3.11201 3.96917C3.48044 3.85071 3.87975 3.87346 4.23234 4.033C4.45946 4.13879 4.70872 4.18832 4.95903 4.17738C5.20934 4.16643 5.45333 4.09534 5.67035 3.97013C5.88737 3.84492 6.07102 3.66926 6.20577 3.45803C6.34052 3.2468 6.4224 3.00622 6.44447 2.75664" stroke="#525252" stroke-width="1.33301" stroke-linecap="round" stroke-linejoin="round"/>
<path d="M7.99805 9.99756C9.10235 9.99756 9.99756 9.10235 9.99756 7.99805C9.99756 6.89375 9.10235 5.99854 7.99805 5.99854C6.89375 5.99854 5.99854 6.89375 5.99854 7.99805C5.99854 9.10235 6.89375 9.99756 7.99805 9.99756Z" stroke="#525252" stroke-width="1.33301" stroke-linecap="round" stroke-linejoin="round"/>
</g>
<defs>
<clipPath id="clip0_1_279">
<rect width="15.9961" height="15.9961" fill="white"/>
</clipPath>
</defs>
</svg>
